# Unit cube centered at origin, CCW from outside.
v -0.5 -0.5 -0.5
v  0.5 -0.5 -0.5
v  0.5  0.5 -0.5
v -0.5  0.5 -0.5
v -0.5 -0.5  0.5
v  0.5 -0.5  0.5
v  0.5  0.5  0.5
v -0.5  0.5  0.5
vn  0  0 -1
vn  0  0  1
vn -1  0  0
vn  1  0  0
vn  0 -1  0
vn  0  1  0
# back face
f 1//1 4//1 3//1
f 1//1 3//1 2//1
# front face
f 5//2 6//2 7//2
f 5//2 7//2 8//2
# left face
f 1//3 5//3 8//3
f 1//3 8//3 4//3
# right face
f 2//4 3//4 7//4
f 2//4 7//4 6//4
# bottom face
f 1//5 2//5 6//5
f 1//5 6//5 5//5
# top face
f 4//6 8//6 7//6
f 4//6 7//6 3//6
